<?xml version="1.0" encoding="UTF-8" standalone="no"?>
<!DOCTYPE svg PUBLIC "-//W3C//DTD SVG 1.1//EN"
 "http://www.w3.org/Graphics/SVG/1.1/DTD/svg11.dtd">
<!-- Generated by graphviz version 2.43.0 (0)
 -->
<!-- Title: polars_query Pages: 1 -->
<svg width="808pt" height="569pt"
 viewBox="0.00 0.00 808.00 569.00" xmlns="http://www.w3.org/2000/svg" xmlns:xlink="http://www.w3.org/1999/xlink">
<g id="graph0" class="graph" transform="scale(1 1) rotate(0) translate(4 565)">
<title>polars_query</title>
<polygon fill="#181818" stroke="transparent" points="-4,4 -4,-565 804,-565 804,4 -4,4"/>
<!-- p2 -->
<g id="node1" class="node">
<title>p2</title>
<polygon fill="none" stroke="#bbbbbb" points="689,-489 111,-489 111,-436 689,-436 689,-489"/>
<text text-anchor="middle" x="400" y="-473.8" font-family="Monospace" font-size="14.00" fill="#bbbbbb">AGG [col(&quot;asks&quot;).arr.get([dyn int: 1]).sum().alias(&quot;ask_depth_500&quot;)]</text>
<text text-anchor="middle" x="400" y="-458.8" font-family="Monospace" font-size="14.00" fill="#bbbbbb">BY</text>
<text text-anchor="middle" x="400" y="-443.8" font-family="Monospace" font-size="14.00" fill="#bbbbbb">[col(&quot;timestamp&quot;)]</text>
</g>
<!-- p1 -->
<g id="node2" class="node">
<title>p1</title>
<polygon fill="none" stroke="#bbbbbb" points="515.5,-561 284.5,-561 284.5,-525 515.5,-525 515.5,-561"/>
<text text-anchor="middle" x="400" y="-539.3" font-family="Monospace" font-size="14.00" fill="#bbbbbb">SORT BY [col(&quot;timestamp&quot;)]</text>
</g>
<!-- p2&#45;&gt;p1 -->
<g id="edge1" class="edge">
<title>p2&#45;&gt;p1</title>
<path fill="none" stroke="#bbbbbb" d="M400,-489.2C400,-497.29 400,-506.24 400,-514.45"/>
<polygon fill="#bbbbbb" stroke="#bbbbbb" points="396.5,-514.67 400,-524.67 403.5,-514.67 396.5,-514.67"/>
</g>
<!-- p3 -->
<g id="node3" class="node">
<title>p3</title>
<polygon fill="none" stroke="#bbbbbb" points="495,-400 305,-400 305,-362 495,-362 495,-400"/>
<text text-anchor="middle" x="400" y="-384.8" font-family="Monospace" font-size="14.00" fill="#bbbbbb">simple π 2/4</text>
<text text-anchor="middle" x="400" y="-369.8" font-family="Monospace" font-size="14.00" fill="#bbbbbb">[&quot;asks&quot;, &quot;timestamp&quot;]</text>
</g>
<!-- p3&#45;&gt;p2 -->
<g id="edge2" class="edge">
<title>p3&#45;&gt;p2</title>
<path fill="none" stroke="#bbbbbb" d="M400,-400.04C400,-407.68 400,-416.86 400,-425.77"/>
<polygon fill="#bbbbbb" stroke="#bbbbbb" points="396.5,-426 400,-436 403.5,-426 396.5,-426"/>
</g>
<!-- p4 -->
<g id="node4" class="node">
<title>p4</title>
<polygon fill="none" stroke="#bbbbbb" points="713.5,-326 86.5,-326 86.5,-290 713.5,-290 713.5,-326"/>
<text text-anchor="middle" x="400" y="-304.3" font-family="Monospace" font-size="14.00" fill="#bbbbbb">FILTER BY [(col(&quot;asks&quot;).arr.get([dyn int: 0])) &lt;= (col(&quot;ask_p_500_lvls&quot;))]</text>
</g>
<!-- p4&#45;&gt;p3 -->
<g id="edge3" class="edge">
<title>p4&#45;&gt;p3</title>
<path fill="none" stroke="#bbbbbb" d="M400,-326.19C400,-333.89 400,-343.18 400,-351.85"/>
<polygon fill="#bbbbbb" stroke="#bbbbbb" points="396.5,-351.98 400,-361.98 403.5,-351.98 396.5,-351.98"/>
</g>
<!-- p5 -->
<g id="node5" class="node">
<title>p5</title>
<polygon fill="none" stroke="#bbbbbb" points="466,-254 334,-254 334,-218 466,-218 466,-254"/>
<text text-anchor="middle" x="400" y="-232.3" font-family="Monospace" font-size="14.00" fill="#bbbbbb">EXPLODE [asks]</text>
</g>
<!-- p5&#45;&gt;p4 -->
<g id="edge4" class="edge">
<title>p5&#45;&gt;p4</title>
<path fill="none" stroke="#bbbbbb" d="M400,-254.3C400,-262.02 400,-271.29 400,-279.89"/>
<polygon fill="#bbbbbb" stroke="#bbbbbb" points="396.5,-279.9 400,-289.9 403.5,-279.9 396.5,-279.9"/>
</g>
<!-- p6 -->
<g id="node6" class="node">
<title>p6</title>
<polygon fill="none" stroke="#bbbbbb" points="689,-182 111,-182 111,-146 689,-146 689,-182"/>
<text text-anchor="middle" x="400" y="-160.3" font-family="Monospace" font-size="14.00" fill="#bbbbbb">WITH COLUMNS [[(col(&quot;lowest_ask&quot;)) + (5.0)].alias(&quot;ask_p_500_lvls&quot;)]</text>
</g>
<!-- p6&#45;&gt;p5 -->
<g id="edge5" class="edge">
<title>p6&#45;&gt;p5</title>
<path fill="none" stroke="#bbbbbb" d="M400,-182.3C400,-190.02 400,-199.29 400,-207.89"/>
<polygon fill="#bbbbbb" stroke="#bbbbbb" points="396.5,-207.9 400,-217.9 403.5,-207.9 396.5,-207.9"/>
</g>
<!-- p7 -->
<g id="node7" class="node">
<title>p7</title>
<polygon fill="none" stroke="#bbbbbb" points="800,-110 0,-110 0,-74 800,-74 800,-110"/>
<text text-anchor="middle" x="400" y="-88.3" font-family="Monospace" font-size="14.00" fill="#bbbbbb">WITH COLUMNS [col(&quot;asks&quot;).array.agg(element().arr.get([dyn int: 0]).min()).alias(&quot;lowest_ask&quot;)]</text>
</g>
<!-- p7&#45;&gt;p6 -->
<g id="edge6" class="edge">
<title>p7&#45;&gt;p6</title>
<path fill="none" stroke="#bbbbbb" d="M400,-110.3C400,-118.02 400,-127.29 400,-135.89"/>
<polygon fill="#bbbbbb" stroke="#bbbbbb" points="396.5,-135.9 400,-145.9 403.5,-135.9 396.5,-135.9"/>
</g>
<!-- p8 -->
<g id="node8" class="node">
<title>p8</title>
<polygon fill="none" stroke="#bbbbbb" points="755,-38 45,-38 45,0 755,0 755,-38"/>
<text text-anchor="middle" x="400" y="-22.8" font-family="Monospace" font-size="14.00" fill="#bbbbbb">Parquet SCAN [../polars&#45;nested&#45;types&#45;pydata&#45;data/parquet/fix/nestarr_zstd_1.parquet]</text>
<text text-anchor="middle" x="400" y="-7.8" font-family="Monospace" font-size="14.00" fill="#bbbbbb">π 2/4;</text>
</g>
<!-- p8&#45;&gt;p7 -->
<g id="edge7" class="edge">
<title>p8&#45;&gt;p7</title>
<path fill="none" stroke="#bbbbbb" d="M400,-38.28C400,-46.03 400,-55.21 400,-63.73"/>
<polygon fill="#bbbbbb" stroke="#bbbbbb" points="396.5,-64 400,-74 403.5,-64 396.5,-64"/>
</g>
</g>
</svg>
