<?xml version="1.0" encoding="UTF-8" standalone="no"?>
<!DOCTYPE svg PUBLIC "-//W3C//DTD SVG 1.1//EN"
 "http://www.w3.org/Graphics/SVG/1.1/DTD/svg11.dtd">
<!-- Generated by graphviz version 2.43.0 (0)
 -->
<!-- Title: polars_query Pages: 1 -->
<svg width="710pt" height="825pt"
 viewBox="0.00 0.00 709.50 825.00" xmlns="http://www.w3.org/2000/svg" xmlns:xlink="http://www.w3.org/1999/xlink">
<g id="graph0" class="graph" transform="scale(1 1) rotate(0) translate(4 821)">
<title>polars_query</title>
<polygon fill="#181818" stroke="transparent" points="-4,4 -4,-821 705.5,-821 705.5,4 -4,4"/>
<!-- p2 -->
<g id="node1" class="node">
<title>p2</title>
<polygon fill="none" stroke="#bbbbbb" points="584,-745 171,-745 171,-692 584,-692 584,-745"/>
<text text-anchor="middle" x="377.5" y="-729.8" font-family="Monospace" font-size="14.00" fill="#bbbbbb">AGG [col(&quot;asks_v&quot;).sum().alias(&quot;ask_depth_500&quot;)]</text>
<text text-anchor="middle" x="377.5" y="-714.8" font-family="Monospace" font-size="14.00" fill="#bbbbbb">BY</text>
<text text-anchor="middle" x="377.5" y="-699.8" font-family="Monospace" font-size="14.00" fill="#bbbbbb">[col(&quot;timestamp&quot;)]</text>
</g>
<!-- p1 -->
<g id="node2" class="node">
<title>p1</title>
<polygon fill="none" stroke="#bbbbbb" points="493,-817 262,-817 262,-781 493,-781 493,-817"/>
<text text-anchor="middle" x="377.5" y="-795.3" font-family="Monospace" font-size="14.00" fill="#bbbbbb">SORT BY [col(&quot;timestamp&quot;)]</text>
</g>
<!-- p2&#45;&gt;p1 -->
<g id="edge1" class="edge">
<title>p2&#45;&gt;p1</title>
<path fill="none" stroke="#bbbbbb" d="M377.5,-745.2C377.5,-753.29 377.5,-762.24 377.5,-770.45"/>
<polygon fill="#bbbbbb" stroke="#bbbbbb" points="374,-770.67 377.5,-780.67 381,-770.67 374,-770.67"/>
</g>
<!-- p3 -->
<g id="node3" class="node">
<title>p3</title>
<polygon fill="none" stroke="#bbbbbb" points="480.5,-656 274.5,-656 274.5,-618 480.5,-618 480.5,-656"/>
<text text-anchor="middle" x="377.5" y="-640.8" font-family="Monospace" font-size="14.00" fill="#bbbbbb">simple π 2/4</text>
<text text-anchor="middle" x="377.5" y="-625.8" font-family="Monospace" font-size="14.00" fill="#bbbbbb">[&quot;asks_v&quot;, &quot;timestamp&quot;]</text>
</g>
<!-- p3&#45;&gt;p2 -->
<g id="edge2" class="edge">
<title>p3&#45;&gt;p2</title>
<path fill="none" stroke="#bbbbbb" d="M377.5,-656.04C377.5,-663.68 377.5,-672.86 377.5,-681.77"/>
<polygon fill="#bbbbbb" stroke="#bbbbbb" points="374,-682 377.5,-692 381,-682 374,-682"/>
</g>
<!-- p4 -->
<g id="node4" class="node">
<title>p4</title>
<polygon fill="none" stroke="#bbbbbb" points="608.5,-582 146.5,-582 146.5,-546 608.5,-546 608.5,-582"/>
<text text-anchor="middle" x="377.5" y="-560.3" font-family="Monospace" font-size="14.00" fill="#bbbbbb">FILTER BY [(col(&quot;asks_p&quot;)) &lt;= (col(&quot;ask_p_500_lvls&quot;))]</text>
</g>
<!-- p4&#45;&gt;p3 -->
<g id="edge3" class="edge">
<title>p4&#45;&gt;p3</title>
<path fill="none" stroke="#bbbbbb" d="M377.5,-582.19C377.5,-589.89 377.5,-599.18 377.5,-607.85"/>
<polygon fill="#bbbbbb" stroke="#bbbbbb" points="374,-607.98 377.5,-617.98 381,-607.98 374,-607.98"/>
</g>
<!-- p5 -->
<g id="node5" class="node">
<title>p5</title>
<polygon fill="none" stroke="#bbbbbb" points="567.5,-510 187.5,-510 187.5,-472 567.5,-472 567.5,-510"/>
<text text-anchor="middle" x="377.5" y="-494.8" font-family="Monospace" font-size="14.00" fill="#bbbbbb">simple π 4/5</text>
<text text-anchor="middle" x="377.5" y="-479.8" font-family="Monospace" font-size="14.00" fill="#bbbbbb">[&quot;asks_v&quot;, &quot;timestamp&quot;, ... 2 other columns]</text>
</g>
<!-- p5&#45;&gt;p4 -->
<g id="edge4" class="edge">
<title>p5&#45;&gt;p4</title>
<path fill="none" stroke="#bbbbbb" d="M377.5,-510.28C377.5,-518.03 377.5,-527.21 377.5,-535.73"/>
<polygon fill="#bbbbbb" stroke="#bbbbbb" points="374,-536 377.5,-546 381,-536 374,-536"/>
</g>
<!-- p6 -->
<g id="node6" class="node">
<title>p6</title>
<polygon fill="none" stroke="#bbbbbb" points="489,-436 266,-436 266,-383 489,-383 489,-436"/>
<text text-anchor="middle" x="377.5" y="-420.8" font-family="Monospace" font-size="14.00" fill="#bbbbbb">JOIN INNER</text>
<text text-anchor="middle" x="377.5" y="-405.8" font-family="Monospace" font-size="14.00" fill="#bbbbbb">left: [col(&quot;timestamp&quot;)];</text>
<text text-anchor="middle" x="377.5" y="-390.8" font-family="Monospace" font-size="14.00" fill="#bbbbbb">right: [col(&quot;timestamp&quot;)]</text>
</g>
<!-- p6&#45;&gt;p5 -->
<g id="edge5" class="edge">
<title>p6&#45;&gt;p5</title>
<path fill="none" stroke="#bbbbbb" d="M377.5,-436.09C377.5,-444.26 377.5,-453.35 377.5,-461.7"/>
<polygon fill="#bbbbbb" stroke="#bbbbbb" points="374,-461.76 377.5,-471.76 381,-461.76 374,-461.76"/>
</g>
<!-- p7 -->
<g id="node7" class="node">
<title>p7</title>
<polygon fill="none" stroke="#bbbbbb" points="645.5,-347 331.5,-347 331.5,-309 645.5,-309 645.5,-347"/>
<text text-anchor="middle" x="488.5" y="-331.8" font-family="Monospace" font-size="14.00" fill="#bbbbbb">WITH COLUMNS [[(col(&quot;lowest_ask&quot;)) +</text>
<text text-anchor="middle" x="488.5" y="-316.8" font-family="Monospace" font-size="14.00" fill="#bbbbbb"> (5.0)].alias(&quot;ask_p_500_lvls&quot;)]</text>
</g>
<!-- p7&#45;&gt;p6 -->
<g id="edge6" class="edge">
<title>p7&#45;&gt;p6</title>
<path fill="none" stroke="#bbbbbb" d="M463.31,-347.04C450.91,-355.92 435.59,-366.9 421.34,-377.1"/>
<polygon fill="#bbbbbb" stroke="#bbbbbb" points="419.2,-374.33 413.11,-383 423.28,-380.02 419.2,-374.33"/>
</g>
<!-- p8 -->
<g id="node8" class="node">
<title>p8</title>
<polygon fill="none" stroke="#bbbbbb" points="701.5,-273 313.5,-273 313.5,-220 701.5,-220 701.5,-273"/>
<text text-anchor="middle" x="507.5" y="-257.8" font-family="Monospace" font-size="14.00" fill="#bbbbbb">AGG [col(&quot;asks_p&quot;).min().alias(&quot;lowest_ask&quot;)]</text>
<text text-anchor="middle" x="507.5" y="-242.8" font-family="Monospace" font-size="14.00" fill="#bbbbbb">BY</text>
<text text-anchor="middle" x="507.5" y="-227.8" font-family="Monospace" font-size="14.00" fill="#bbbbbb">[col(&quot;timestamp&quot;)]</text>
</g>
<!-- p8&#45;&gt;p7 -->
<g id="edge7" class="edge">
<title>p8&#45;&gt;p7</title>
<path fill="none" stroke="#bbbbbb" d="M501.38,-273.09C499.41,-281.35 497.21,-290.55 495.2,-298.98"/>
<polygon fill="#bbbbbb" stroke="#bbbbbb" points="491.78,-298.22 492.86,-308.76 498.59,-299.85 491.78,-298.22"/>
</g>
<!-- p9 -->
<g id="node9" class="node">
<title>p9</title>
<polygon fill="none" stroke="#bbbbbb" points="564.5,-184 358.5,-184 358.5,-146 564.5,-146 564.5,-184"/>
<text text-anchor="middle" x="461.5" y="-168.8" font-family="Monospace" font-size="14.00" fill="#bbbbbb">simple π 2/3</text>
<text text-anchor="middle" x="461.5" y="-153.8" font-family="Monospace" font-size="14.00" fill="#bbbbbb">[&quot;timestamp&quot;, &quot;asks_p&quot;]</text>
</g>
<!-- p9&#45;&gt;p8 -->
<g id="edge8" class="edge">
<title>p9&#45;&gt;p8</title>
<path fill="none" stroke="#bbbbbb" d="M471.94,-184.04C476.6,-192.09 482.25,-201.86 487.67,-211.22"/>
<polygon fill="#bbbbbb" stroke="#bbbbbb" points="484.71,-213.09 492.74,-220 490.76,-209.59 484.71,-213.09"/>
</g>
<!-- e9ff242a&#45;eb09&#45;47b6&#45;8f44&#45;967606f0dff0 -->
<g id="node10" class="node">
<title>e9ff242a&#45;eb09&#45;47b6&#45;8f44&#45;967606f0dff0</title>
<polygon fill="none" stroke="#bbbbbb" points="379.5,-110 321.5,-110 321.5,-74 379.5,-74 379.5,-110"/>
<text text-anchor="middle" x="350.5" y="-88.3" font-family="Monospace" font-size="14.00" fill="#bbbbbb">CACHE</text>
</g>
<!-- e9ff242a&#45;eb09&#45;47b6&#45;8f44&#45;967606f0dff0&#45;&gt;p6 -->
<g id="edge11" class="edge">
<title>e9ff242a&#45;eb09&#45;47b6&#45;8f44&#45;967606f0dff0&#45;&gt;p6</title>
<path fill="none" stroke="#bbbbbb" d="M342.11,-110.14C330.92,-134.06 311.68,-179.12 304.5,-220 300.43,-243.2 301.7,-249.61 304.5,-273 308.53,-306.61 306.75,-317.04 322.5,-347 327.76,-357 335,-366.67 342.49,-375.27"/>
<polygon fill="#bbbbbb" stroke="#bbbbbb" points="340.08,-377.82 349.4,-382.85 345.25,-373.1 340.08,-377.82"/>
</g>
<!-- e9ff242a&#45;eb09&#45;47b6&#45;8f44&#45;967606f0dff0&#45;&gt;p9 -->
<g id="edge9" class="edge">
<title>e9ff242a&#45;eb09&#45;47b6&#45;8f44&#45;967606f0dff0&#45;&gt;p9</title>
<path fill="none" stroke="#bbbbbb" d="M377.09,-110.01C391.24,-119.06 408.88,-130.34 424.36,-140.25"/>
<polygon fill="#bbbbbb" stroke="#bbbbbb" points="422.88,-143.45 433.19,-145.89 426.65,-137.55 422.88,-143.45"/>
</g>
<!-- p10 -->
<g id="node11" class="node">
<title>p10</title>
<polygon fill="none" stroke="#bbbbbb" points="701,-38 0,-38 0,0 701,0 701,-38"/>
<text text-anchor="middle" x="350.5" y="-22.8" font-family="Monospace" font-size="14.00" fill="#bbbbbb">Parquet SCAN [../polars&#45;nested&#45;types&#45;pydata&#45;data/parquet/fix/nonest_zstd_1.parquet]</text>
<text text-anchor="middle" x="350.5" y="-7.8" font-family="Monospace" font-size="14.00" fill="#bbbbbb">π 3/6;</text>
</g>
<!-- p10&#45;&gt;e9ff242a&#45;eb09&#45;47b6&#45;8f44&#45;967606f0dff0 -->
<g id="edge10" class="edge">
<title>p10&#45;&gt;e9ff242a&#45;eb09&#45;47b6&#45;8f44&#45;967606f0dff0</title>
<path fill="none" stroke="#bbbbbb" d="M350.5,-38.28C350.5,-46.03 350.5,-55.21 350.5,-63.73"/>
<polygon fill="#bbbbbb" stroke="#bbbbbb" points="347,-64 350.5,-74 354,-64 347,-64"/>
</g>
</g>
</svg>
