<?xml version="1.0" encoding="UTF-8" standalone="no"?>
<!DOCTYPE svg PUBLIC "-//W3C//DTD SVG 1.1//EN"
 "http://www.w3.org/Graphics/SVG/1.1/DTD/svg11.dtd">
<!-- Generated by graphviz version 2.43.0 (0)
 -->
<!-- Title: polars_query Pages: 1 -->
<svg width="850pt" height="497pt"
 viewBox="0.00 0.00 850.00 497.00" xmlns="http://www.w3.org/2000/svg" xmlns:xlink="http://www.w3.org/1999/xlink">
<g id="graph0" class="graph" transform="scale(1 1) rotate(0) translate(4 493)">
<title>polars_query</title>
<polygon fill="#181818" stroke="transparent" points="-4,4 -4,-493 846,-493 846,4 -4,4"/>
<!-- p2 -->
<g id="node1" class="node">
<title>p2</title>
<polygon fill="none" stroke="#bbbbbb" points="714,-417 128,-417 128,-364 714,-364 714,-417"/>
<text text-anchor="middle" x="421" y="-401.8" font-family="Monospace" font-size="14.00" fill="#bbbbbb">AGG [col(&quot;asks&quot;).list.get([dyn int: 1]).sum().alias(&quot;ask_depth_500&quot;)]</text>
<text text-anchor="middle" x="421" y="-386.8" font-family="Monospace" font-size="14.00" fill="#bbbbbb">BY</text>
<text text-anchor="middle" x="421" y="-371.8" font-family="Monospace" font-size="14.00" fill="#bbbbbb">[col(&quot;timestamp&quot;)]</text>
</g>
<!-- p1 -->
<g id="node2" class="node">
<title>p1</title>
<polygon fill="none" stroke="#bbbbbb" points="536.5,-489 305.5,-489 305.5,-453 536.5,-453 536.5,-489"/>
<text text-anchor="middle" x="421" y="-467.3" font-family="Monospace" font-size="14.00" fill="#bbbbbb">SORT BY [col(&quot;timestamp&quot;)]</text>
</g>
<!-- p2&#45;&gt;p1 -->
<g id="edge1" class="edge">
<title>p2&#45;&gt;p1</title>
<path fill="none" stroke="#bbbbbb" d="M421,-417.2C421,-425.29 421,-434.24 421,-442.45"/>
<polygon fill="#bbbbbb" stroke="#bbbbbb" points="417.5,-442.67 421,-452.67 424.5,-442.67 417.5,-442.67"/>
</g>
<!-- p3 -->
<g id="node3" class="node">
<title>p3</title>
<polygon fill="none" stroke="#bbbbbb" points="516,-328 326,-328 326,-290 516,-290 516,-328"/>
<text text-anchor="middle" x="421" y="-312.8" font-family="Monospace" font-size="14.00" fill="#bbbbbb">simple π 2/4</text>
<text text-anchor="middle" x="421" y="-297.8" font-family="Monospace" font-size="14.00" fill="#bbbbbb">[&quot;asks&quot;, &quot;timestamp&quot;]</text>
</g>
<!-- p3&#45;&gt;p2 -->
<g id="edge2" class="edge">
<title>p3&#45;&gt;p2</title>
<path fill="none" stroke="#bbbbbb" d="M421,-328.04C421,-335.68 421,-344.86 421,-353.77"/>
<polygon fill="#bbbbbb" stroke="#bbbbbb" points="417.5,-354 421,-364 424.5,-354 417.5,-354"/>
</g>
<!-- p4 -->
<g id="node4" class="node">
<title>p4</title>
<polygon fill="none" stroke="#bbbbbb" points="738.5,-254 103.5,-254 103.5,-218 738.5,-218 738.5,-254"/>
<text text-anchor="middle" x="421" y="-232.3" font-family="Monospace" font-size="14.00" fill="#bbbbbb">FILTER BY [(col(&quot;asks&quot;).list.get([dyn int: 0])) &lt;= (col(&quot;ask_p_500_lvls&quot;))]</text>
</g>
<!-- p4&#45;&gt;p3 -->
<g id="edge3" class="edge">
<title>p4&#45;&gt;p3</title>
<path fill="none" stroke="#bbbbbb" d="M421,-254.19C421,-261.89 421,-271.18 421,-279.85"/>
<polygon fill="#bbbbbb" stroke="#bbbbbb" points="417.5,-279.98 421,-289.98 424.5,-279.98 417.5,-279.98"/>
</g>
<!-- p5 -->
<g id="node5" class="node">
<title>p5</title>
<polygon fill="none" stroke="#bbbbbb" points="710,-182 132,-182 132,-146 710,-146 710,-182"/>
<text text-anchor="middle" x="421" y="-160.3" font-family="Monospace" font-size="14.00" fill="#bbbbbb">WITH COLUMNS [[(col(&quot;lowest_ask&quot;)) + (5.0)].alias(&quot;ask_p_500_lvls&quot;)]</text>
</g>
<!-- p5&#45;&gt;p4 -->
<g id="edge4" class="edge">
<title>p5&#45;&gt;p4</title>
<path fill="none" stroke="#bbbbbb" d="M421,-182.3C421,-190.02 421,-199.29 421,-207.89"/>
<polygon fill="#bbbbbb" stroke="#bbbbbb" points="417.5,-207.9 421,-217.9 424.5,-207.9 417.5,-207.9"/>
</g>
<!-- p6 -->
<g id="node6" class="node">
<title>p6</title>
<polygon fill="none" stroke="#bbbbbb" points="842,-110 0,-110 0,-74 842,-74 842,-110"/>
<text text-anchor="middle" x="421" y="-88.3" font-family="Monospace" font-size="14.00" fill="#bbbbbb">WITH COLUMNS [col(&quot;asks&quot;).list.get([dyn int: 0]).min().over([col(&quot;timestamp&quot;)]).alias(&quot;lowest_ask&quot;)]</text>
</g>
<!-- p6&#45;&gt;p5 -->
<g id="edge5" class="edge">
<title>p6&#45;&gt;p5</title>
<path fill="none" stroke="#bbbbbb" d="M421,-110.3C421,-118.02 421,-127.29 421,-135.89"/>
<polygon fill="#bbbbbb" stroke="#bbbbbb" points="417.5,-135.9 421,-145.9 424.5,-135.9 417.5,-135.9"/>
</g>
<!-- p7 -->
<g id="node7" class="node">
<title>p7</title>
<polygon fill="none" stroke="#bbbbbb" points="780,-38 62,-38 62,0 780,0 780,-38"/>
<text text-anchor="middle" x="421" y="-22.8" font-family="Monospace" font-size="14.00" fill="#bbbbbb">Parquet SCAN [../polars&#45;nested&#45;types&#45;pydata&#45;data/parquet/fix/flatlist_zstd_1.parquet]</text>
<text text-anchor="middle" x="421" y="-7.8" font-family="Monospace" font-size="14.00" fill="#bbbbbb">π 2/4;</text>
</g>
<!-- p7&#45;&gt;p6 -->
<g id="edge6" class="edge">
<title>p7&#45;&gt;p6</title>
<path fill="none" stroke="#bbbbbb" d="M421,-38.28C421,-46.03 421,-55.21 421,-63.73"/>
<polygon fill="#bbbbbb" stroke="#bbbbbb" points="417.5,-64 421,-74 424.5,-64 417.5,-64"/>
</g>
</g>
</svg>
