<?xml version="1.0" encoding="UTF-8" standalone="no"?>
<!DOCTYPE svg PUBLIC "-//W3C//DTD SVG 1.1//EN"
 "http://www.w3.org/Graphics/SVG/1.1/DTD/svg11.dtd">
<!-- Generated by graphviz version 2.43.0 (0)
 -->
<!-- Title: polars_query Pages: 1 -->
<svg width="813pt" height="749pt"
 viewBox="0.00 0.00 812.50 749.00" xmlns="http://www.w3.org/2000/svg" xmlns:xlink="http://www.w3.org/1999/xlink">
<g id="graph0" class="graph" transform="scale(1 1) rotate(0) translate(4 745)">
<title>polars_query</title>
<polygon fill="#181818" stroke="transparent" points="-4,4 -4,-745 808.5,-745 808.5,4 -4,4"/>
<!-- p2 -->
<g id="node1" class="node">
<title>p2</title>
<polygon fill="none" stroke="#bbbbbb" points="654,-669 43,-669 43,-616 654,-616 654,-669"/>
<text text-anchor="middle" x="348.5" y="-653.8" font-family="Monospace" font-size="14.00" fill="#bbbbbb">AGG [col(&quot;asks&quot;).struct.field_by_name(v)().sum().alias(&quot;ask_depth_500&quot;)]</text>
<text text-anchor="middle" x="348.5" y="-638.8" font-family="Monospace" font-size="14.00" fill="#bbbbbb">BY</text>
<text text-anchor="middle" x="348.5" y="-623.8" font-family="Monospace" font-size="14.00" fill="#bbbbbb">[col(&quot;timestamp&quot;)]</text>
</g>
<!-- p1 -->
<g id="node2" class="node">
<title>p1</title>
<polygon fill="none" stroke="#bbbbbb" points="464,-741 233,-741 233,-705 464,-705 464,-741"/>
<text text-anchor="middle" x="348.5" y="-719.3" font-family="Monospace" font-size="14.00" fill="#bbbbbb">SORT BY [col(&quot;timestamp&quot;)]</text>
</g>
<!-- p2&#45;&gt;p1 -->
<g id="edge1" class="edge">
<title>p2&#45;&gt;p1</title>
<path fill="none" stroke="#bbbbbb" d="M348.5,-669.2C348.5,-677.29 348.5,-686.24 348.5,-694.45"/>
<polygon fill="#bbbbbb" stroke="#bbbbbb" points="345,-694.67 348.5,-704.67 352,-694.67 345,-694.67"/>
</g>
<!-- p3 -->
<g id="node3" class="node">
<title>p3</title>
<polygon fill="none" stroke="#bbbbbb" points="443.5,-580 253.5,-580 253.5,-542 443.5,-542 443.5,-580"/>
<text text-anchor="middle" x="348.5" y="-564.8" font-family="Monospace" font-size="14.00" fill="#bbbbbb">simple π 2/3</text>
<text text-anchor="middle" x="348.5" y="-549.8" font-family="Monospace" font-size="14.00" fill="#bbbbbb">[&quot;asks&quot;, &quot;timestamp&quot;]</text>
</g>
<!-- p3&#45;&gt;p2 -->
<g id="edge2" class="edge">
<title>p3&#45;&gt;p2</title>
<path fill="none" stroke="#bbbbbb" d="M348.5,-580.04C348.5,-587.68 348.5,-596.86 348.5,-605.77"/>
<polygon fill="#bbbbbb" stroke="#bbbbbb" points="345,-606 348.5,-616 352,-606 345,-606"/>
</g>
<!-- p4 -->
<g id="node4" class="node">
<title>p4</title>
<polygon fill="none" stroke="#bbbbbb" points="678.5,-506 18.5,-506 18.5,-470 678.5,-470 678.5,-506"/>
<text text-anchor="middle" x="348.5" y="-484.3" font-family="Monospace" font-size="14.00" fill="#bbbbbb">FILTER BY [(col(&quot;asks&quot;).struct.field_by_name(p)()) &lt;= (col(&quot;ask_p_500_lvls&quot;))]</text>
</g>
<!-- p4&#45;&gt;p3 -->
<g id="edge3" class="edge">
<title>p4&#45;&gt;p3</title>
<path fill="none" stroke="#bbbbbb" d="M348.5,-506.19C348.5,-513.89 348.5,-523.18 348.5,-531.85"/>
<polygon fill="#bbbbbb" stroke="#bbbbbb" points="345,-531.98 348.5,-541.98 352,-531.98 345,-531.98"/>
</g>
<!-- p5 -->
<g id="node5" class="node">
<title>p5</title>
<polygon fill="none" stroke="#bbbbbb" points="526,-434 171,-434 171,-396 526,-396 526,-434"/>
<text text-anchor="middle" x="348.5" y="-418.8" font-family="Monospace" font-size="14.00" fill="#bbbbbb">simple π 3/4</text>
<text text-anchor="middle" x="348.5" y="-403.8" font-family="Monospace" font-size="14.00" fill="#bbbbbb">[&quot;asks&quot;, &quot;timestamp&quot;, ... 1 other column]</text>
</g>
<!-- p5&#45;&gt;p4 -->
<g id="edge4" class="edge">
<title>p5&#45;&gt;p4</title>
<path fill="none" stroke="#bbbbbb" d="M348.5,-434.28C348.5,-442.03 348.5,-451.21 348.5,-459.73"/>
<polygon fill="#bbbbbb" stroke="#bbbbbb" points="345,-460 348.5,-470 352,-460 345,-460"/>
</g>
<!-- p6 -->
<g id="node6" class="node">
<title>p6</title>
<polygon fill="none" stroke="#bbbbbb" points="460,-360 237,-360 237,-307 460,-307 460,-360"/>
<text text-anchor="middle" x="348.5" y="-344.8" font-family="Monospace" font-size="14.00" fill="#bbbbbb">JOIN INNER</text>
<text text-anchor="middle" x="348.5" y="-329.8" font-family="Monospace" font-size="14.00" fill="#bbbbbb">left: [col(&quot;timestamp&quot;)];</text>
<text text-anchor="middle" x="348.5" y="-314.8" font-family="Monospace" font-size="14.00" fill="#bbbbbb">right: [col(&quot;timestamp&quot;)]</text>
</g>
<!-- p6&#45;&gt;p5 -->
<g id="edge5" class="edge">
<title>p6&#45;&gt;p5</title>
<path fill="none" stroke="#bbbbbb" d="M348.5,-360.09C348.5,-368.26 348.5,-377.35 348.5,-385.7"/>
<polygon fill="#bbbbbb" stroke="#bbbbbb" points="345,-385.76 348.5,-395.76 352,-385.76 345,-385.76"/>
</g>
<!-- p7 -->
<g id="node7" class="node">
<title>p7</title>
<polygon fill="none" stroke="#bbbbbb" points="798.5,-271 220.5,-271 220.5,-235 798.5,-235 798.5,-271"/>
<text text-anchor="middle" x="509.5" y="-249.3" font-family="Monospace" font-size="14.00" fill="#bbbbbb">WITH COLUMNS [[(col(&quot;lowest_ask&quot;)) + (5.0)].alias(&quot;ask_p_500_lvls&quot;)]</text>
</g>
<!-- p7&#45;&gt;p6 -->
<g id="edge6" class="edge">
<title>p7&#45;&gt;p6</title>
<path fill="none" stroke="#bbbbbb" d="M474.57,-271.03C455.71,-280.23 431.88,-291.84 410.03,-302.5"/>
<polygon fill="#bbbbbb" stroke="#bbbbbb" points="408.26,-299.47 400.81,-307 411.33,-305.76 408.26,-299.47"/>
</g>
<!-- p8 -->
<g id="node8" class="node">
<title>p8</title>
<polygon fill="none" stroke="#bbbbbb" points="804.5,-199 218.5,-199 218.5,-146 804.5,-146 804.5,-199"/>
<text text-anchor="middle" x="511.5" y="-183.8" font-family="Monospace" font-size="14.00" fill="#bbbbbb">AGG [col(&quot;asks&quot;).struct.field_by_name(p)().min().alias(&quot;lowest_ask&quot;)]</text>
<text text-anchor="middle" x="511.5" y="-168.8" font-family="Monospace" font-size="14.00" fill="#bbbbbb">BY</text>
<text text-anchor="middle" x="511.5" y="-153.8" font-family="Monospace" font-size="14.00" fill="#bbbbbb">[col(&quot;timestamp&quot;)]</text>
</g>
<!-- p8&#45;&gt;p7 -->
<g id="edge7" class="edge">
<title>p8&#45;&gt;p7</title>
<path fill="none" stroke="#bbbbbb" d="M510.85,-199.2C510.64,-207.29 510.41,-216.24 510.2,-224.45"/>
<polygon fill="#bbbbbb" stroke="#bbbbbb" points="506.7,-224.58 509.94,-234.67 513.7,-224.76 506.7,-224.58"/>
</g>
<!-- 962a8c3b&#45;c1e4&#45;4adc&#45;a014&#45;08a056f27055 -->
<g id="node9" class="node">
<title>962a8c3b&#45;c1e4&#45;4adc&#45;a014&#45;08a056f27055</title>
<polygon fill="none" stroke="#bbbbbb" points="379.5,-110 321.5,-110 321.5,-74 379.5,-74 379.5,-110"/>
<text text-anchor="middle" x="350.5" y="-88.3" font-family="Monospace" font-size="14.00" fill="#bbbbbb">CACHE</text>
</g>
<!-- 962a8c3b&#45;c1e4&#45;4adc&#45;a014&#45;08a056f27055&#45;&gt;p6 -->
<g id="edge10" class="edge">
<title>962a8c3b&#45;c1e4&#45;4adc&#45;a014&#45;08a056f27055&#45;&gt;p6</title>
<path fill="none" stroke="#bbbbbb" d="M321.43,-94.61C288.05,-98.21 234.66,-109.66 209.5,-146 203.26,-155.02 206.34,-263.26 211.5,-271 219.99,-283.72 231.78,-293.84 244.91,-301.88"/>
<polygon fill="#bbbbbb" stroke="#bbbbbb" points="243.29,-304.99 253.71,-306.88 246.74,-298.9 243.29,-304.99"/>
</g>
<!-- 962a8c3b&#45;c1e4&#45;4adc&#45;a014&#45;08a056f27055&#45;&gt;p8 -->
<g id="edge8" class="edge">
<title>962a8c3b&#45;c1e4&#45;4adc&#45;a014&#45;08a056f27055&#45;&gt;p8</title>
<path fill="none" stroke="#bbbbbb" d="M379.66,-107.22C399.26,-116.78 425.84,-129.73 450,-141.51"/>
<polygon fill="#bbbbbb" stroke="#bbbbbb" points="448.6,-144.72 459.12,-145.96 451.67,-138.43 448.6,-144.72"/>
</g>
<!-- p9 -->
<g id="node10" class="node">
<title>p9</title>
<polygon fill="none" stroke="#bbbbbb" points="701,-38 0,-38 0,0 701,0 701,-38"/>
<text text-anchor="middle" x="350.5" y="-22.8" font-family="Monospace" font-size="14.00" fill="#bbbbbb">Parquet SCAN [../polars&#45;nested&#45;types&#45;pydata&#45;data/parquet/fix/struct_zstd_1.parquet]</text>
<text text-anchor="middle" x="350.5" y="-7.8" font-family="Monospace" font-size="14.00" fill="#bbbbbb">π 2/4;</text>
</g>
<!-- p9&#45;&gt;962a8c3b&#45;c1e4&#45;4adc&#45;a014&#45;08a056f27055 -->
<g id="edge9" class="edge">
<title>p9&#45;&gt;962a8c3b&#45;c1e4&#45;4adc&#45;a014&#45;08a056f27055</title>
<path fill="none" stroke="#bbbbbb" d="M350.5,-38.28C350.5,-46.03 350.5,-55.21 350.5,-63.73"/>
<polygon fill="#bbbbbb" stroke="#bbbbbb" points="347,-64 350.5,-74 354,-64 347,-64"/>
</g>
</g>
</svg>
