<?xml version="1.0" encoding="UTF-8" standalone="no"?>
<!DOCTYPE svg PUBLIC "-//W3C//DTD SVG 1.1//EN"
 "http://www.w3.org/Graphics/SVG/1.1/DTD/svg11.dtd">
<!-- Generated by graphviz version 2.43.0 (0)
 -->
<!-- Title: polars_query Pages: 1 -->
<svg width="841pt" height="497pt"
 viewBox="0.00 0.00 841.00 497.00" xmlns="http://www.w3.org/2000/svg" xmlns:xlink="http://www.w3.org/1999/xlink">
<g id="graph0" class="graph" transform="scale(1 1) rotate(0) translate(4 493)">
<title>polars_query</title>
<polygon fill="#181818" stroke="transparent" points="-4,4 -4,-493 837,-493 837,4 -4,4"/>
<!-- p2 -->
<g id="node1" class="node">
<title>p2</title>
<polygon fill="none" stroke="#bbbbbb" points="705.5,-417 127.5,-417 127.5,-364 705.5,-364 705.5,-417"/>
<text text-anchor="middle" x="416.5" y="-401.8" font-family="Monospace" font-size="14.00" fill="#bbbbbb">AGG [col(&quot;asks&quot;).arr.get([dyn int: 1]).sum().alias(&quot;ask_depth_500&quot;)]</text>
<text text-anchor="middle" x="416.5" y="-386.8" font-family="Monospace" font-size="14.00" fill="#bbbbbb">BY</text>
<text text-anchor="middle" x="416.5" y="-371.8" font-family="Monospace" font-size="14.00" fill="#bbbbbb">[col(&quot;timestamp&quot;)]</text>
</g>
<!-- p1 -->
<g id="node2" class="node">
<title>p1</title>
<polygon fill="none" stroke="#bbbbbb" points="532,-489 301,-489 301,-453 532,-453 532,-489"/>
<text text-anchor="middle" x="416.5" y="-467.3" font-family="Monospace" font-size="14.00" fill="#bbbbbb">SORT BY [col(&quot;timestamp&quot;)]</text>
</g>
<!-- p2&#45;&gt;p1 -->
<g id="edge1" class="edge">
<title>p2&#45;&gt;p1</title>
<path fill="none" stroke="#bbbbbb" d="M416.5,-417.2C416.5,-425.29 416.5,-434.24 416.5,-442.45"/>
<polygon fill="#bbbbbb" stroke="#bbbbbb" points="413,-442.67 416.5,-452.67 420,-442.67 413,-442.67"/>
</g>
<!-- p3 -->
<g id="node3" class="node">
<title>p3</title>
<polygon fill="none" stroke="#bbbbbb" points="511.5,-328 321.5,-328 321.5,-290 511.5,-290 511.5,-328"/>
<text text-anchor="middle" x="416.5" y="-312.8" font-family="Monospace" font-size="14.00" fill="#bbbbbb">simple π 2/4</text>
<text text-anchor="middle" x="416.5" y="-297.8" font-family="Monospace" font-size="14.00" fill="#bbbbbb">[&quot;asks&quot;, &quot;timestamp&quot;]</text>
</g>
<!-- p3&#45;&gt;p2 -->
<g id="edge2" class="edge">
<title>p3&#45;&gt;p2</title>
<path fill="none" stroke="#bbbbbb" d="M416.5,-328.04C416.5,-335.68 416.5,-344.86 416.5,-353.77"/>
<polygon fill="#bbbbbb" stroke="#bbbbbb" points="413,-354 416.5,-364 420,-354 413,-354"/>
</g>
<!-- p4 -->
<g id="node4" class="node">
<title>p4</title>
<polygon fill="none" stroke="#bbbbbb" points="730,-254 103,-254 103,-218 730,-218 730,-254"/>
<text text-anchor="middle" x="416.5" y="-232.3" font-family="Monospace" font-size="14.00" fill="#bbbbbb">FILTER BY [(col(&quot;asks&quot;).arr.get([dyn int: 0])) &lt;= (col(&quot;ask_p_500_lvls&quot;))]</text>
</g>
<!-- p4&#45;&gt;p3 -->
<g id="edge3" class="edge">
<title>p4&#45;&gt;p3</title>
<path fill="none" stroke="#bbbbbb" d="M416.5,-254.19C416.5,-261.89 416.5,-271.18 416.5,-279.85"/>
<polygon fill="#bbbbbb" stroke="#bbbbbb" points="413,-279.98 416.5,-289.98 420,-279.98 413,-279.98"/>
</g>
<!-- p5 -->
<g id="node5" class="node">
<title>p5</title>
<polygon fill="none" stroke="#bbbbbb" points="705.5,-182 127.5,-182 127.5,-146 705.5,-146 705.5,-182"/>
<text text-anchor="middle" x="416.5" y="-160.3" font-family="Monospace" font-size="14.00" fill="#bbbbbb">WITH COLUMNS [[(col(&quot;lowest_ask&quot;)) + (5.0)].alias(&quot;ask_p_500_lvls&quot;)]</text>
</g>
<!-- p5&#45;&gt;p4 -->
<g id="edge4" class="edge">
<title>p5&#45;&gt;p4</title>
<path fill="none" stroke="#bbbbbb" d="M416.5,-182.3C416.5,-190.02 416.5,-199.29 416.5,-207.89"/>
<polygon fill="#bbbbbb" stroke="#bbbbbb" points="413,-207.9 416.5,-217.9 420,-207.9 413,-207.9"/>
</g>
<!-- p6 -->
<g id="node6" class="node">
<title>p6</title>
<polygon fill="none" stroke="#bbbbbb" points="833,-110 0,-110 0,-74 833,-74 833,-110"/>
<text text-anchor="middle" x="416.5" y="-88.3" font-family="Monospace" font-size="14.00" fill="#bbbbbb">WITH COLUMNS [col(&quot;asks&quot;).arr.get([dyn int: 0]).min().over([col(&quot;timestamp&quot;)]).alias(&quot;lowest_ask&quot;)]</text>
</g>
<!-- p6&#45;&gt;p5 -->
<g id="edge5" class="edge">
<title>p6&#45;&gt;p5</title>
<path fill="none" stroke="#bbbbbb" d="M416.5,-110.3C416.5,-118.02 416.5,-127.29 416.5,-135.89"/>
<polygon fill="#bbbbbb" stroke="#bbbbbb" points="413,-135.9 416.5,-145.9 420,-135.9 413,-135.9"/>
</g>
<!-- p7 -->
<g id="node7" class="node">
<title>p7</title>
<polygon fill="none" stroke="#bbbbbb" points="771.5,-38 61.5,-38 61.5,0 771.5,0 771.5,-38"/>
<text text-anchor="middle" x="416.5" y="-22.8" font-family="Monospace" font-size="14.00" fill="#bbbbbb">Parquet SCAN [../polars&#45;nested&#45;types&#45;pydata&#45;data/parquet/fix/flatarr_zstd_1.parquet]</text>
<text text-anchor="middle" x="416.5" y="-7.8" font-family="Monospace" font-size="14.00" fill="#bbbbbb">π 2/4;</text>
</g>
<!-- p7&#45;&gt;p6 -->
<g id="edge6" class="edge">
<title>p7&#45;&gt;p6</title>
<path fill="none" stroke="#bbbbbb" d="M416.5,-38.28C416.5,-46.03 416.5,-55.21 416.5,-63.73"/>
<polygon fill="#bbbbbb" stroke="#bbbbbb" points="413,-64 416.5,-74 420,-64 413,-64"/>
</g>
</g>
</svg>
