<?xml version="1.0" encoding="UTF-8" standalone="no"?>
<!DOCTYPE svg PUBLIC "-//W3C//DTD SVG 1.1//EN"
 "http://www.w3.org/Graphics/SVG/1.1/DTD/svg11.dtd">
<!-- Generated by graphviz version 2.43.0 (0)
 -->
<!-- Title: polars_query Pages: 1 -->
<svg width="726pt" height="190pt"
 viewBox="0.00 0.00 726.00 190.00" xmlns="http://www.w3.org/2000/svg" xmlns:xlink="http://www.w3.org/1999/xlink">
<g id="graph0" class="graph" transform="scale(1 1) rotate(0) translate(4 186)">
<title>polars_query</title>
<polygon fill="#181818" stroke="transparent" points="-4,4 -4,-186 722,-186 722,4 -4,4"/>
<!-- p2 -->
<g id="node1" class="node">
<title>p2</title>
<polygon fill="none" stroke="#bbbbbb" points="388,-110 330,-110 330,-74 388,-74 388,-110"/>
<text text-anchor="middle" x="359" y="-88.3" font-family="Monospace" font-size="14.00" fill="#bbbbbb">π 3/3</text>
</g>
<!-- p1 -->
<g id="node2" class="node">
<title>p1</title>
<polygon fill="none" stroke="#bbbbbb" points="474.5,-182 243.5,-182 243.5,-146 474.5,-146 474.5,-182"/>
<text text-anchor="middle" x="359" y="-160.3" font-family="Monospace" font-size="14.00" fill="#bbbbbb">SORT BY [col(&quot;timestamp&quot;)]</text>
</g>
<!-- p2&#45;&gt;p1 -->
<g id="edge1" class="edge">
<title>p2&#45;&gt;p1</title>
<path fill="none" stroke="#bbbbbb" d="M359,-110.3C359,-118.02 359,-127.29 359,-135.89"/>
<polygon fill="#bbbbbb" stroke="#bbbbbb" points="355.5,-135.9 359,-145.9 362.5,-135.9 355.5,-135.9"/>
</g>
<!-- p3 -->
<g id="node3" class="node">
<title>p3</title>
<polygon fill="none" stroke="#bbbbbb" points="718,-38 0,-38 0,0 718,0 718,-38"/>
<text text-anchor="middle" x="359" y="-22.8" font-family="Monospace" font-size="14.00" fill="#bbbbbb">Parquet SCAN [../polars&#45;nested&#45;types&#45;pydata&#45;data/parquet/fix/nestlist_zstd_1.parquet]</text>
<text text-anchor="middle" x="359" y="-7.8" font-family="Monospace" font-size="14.00" fill="#bbbbbb">π 3/4;</text>
</g>
<!-- p3&#45;&gt;p2 -->
<g id="edge2" class="edge">
<title>p3&#45;&gt;p2</title>
<path fill="none" stroke="#bbbbbb" d="M359,-38.28C359,-46.03 359,-55.21 359,-63.73"/>
<polygon fill="#bbbbbb" stroke="#bbbbbb" points="355.5,-64 359,-74 362.5,-64 355.5,-64"/>
</g>
</g>
</svg>
