<?xml version="1.0" encoding="UTF-8" standalone="no"?>
<!DOCTYPE svg PUBLIC "-//W3C//DTD SVG 1.1//EN"
 "http://www.w3.org/Graphics/SVG/1.1/DTD/svg11.dtd">
<!-- Generated by graphviz version 2.43.0 (0)
 -->
<!-- Title: polars_query Pages: 1 -->
<svg width="775pt" height="326pt"
 viewBox="0.00 0.00 775.00 326.00" xmlns="http://www.w3.org/2000/svg" xmlns:xlink="http://www.w3.org/1999/xlink">
<g id="graph0" class="graph" transform="scale(1 1) rotate(0) translate(4 322)">
<title>polars_query</title>
<polygon fill="#181818" stroke="transparent" points="-4,4 -4,-322 771,-322 771,4 -4,4"/>
<!-- p2 -->
<g id="node1" class="node">
<title>p2</title>
<polygon fill="none" stroke="#bbbbbb" points="717.5,-246 49.5,-246 49.5,-148 717.5,-148 717.5,-246"/>
<text text-anchor="middle" x="383.5" y="-230.8" font-family="Monospace" font-size="14.00" fill="#bbbbbb">AGG [[([(col(&quot;__POLARS_CSER_0x4022f529c3442314&quot;).max()) +</text>
<text text-anchor="middle" x="383.5" y="-215.8" font-family="Monospace" font-size="14.00" fill="#bbbbbb"> (col(&quot;__POLARS_CSER_0x3468f0989d2369d7&quot;).min())]) / (2.0)].alias(&quot;mid_price&quot;),</text>
<text text-anchor="middle" x="383.5" y="-200.8" font-family="Monospace" font-size="14.00" fill="#bbbbbb"> [(col(&quot;__POLARS_CSER_0x3468f0989d2369d7&quot;).min()) &#45;</text>
<text text-anchor="middle" x="383.5" y="-185.8" font-family="Monospace" font-size="14.00" fill="#bbbbbb"> (col(&quot;__POLARS_CSER_0x4022f529c3442314&quot;).max())].alias(&quot;spread&quot;)]</text>
<text text-anchor="middle" x="383.5" y="-170.8" font-family="Monospace" font-size="14.00" fill="#bbbbbb">BY</text>
<text text-anchor="middle" x="383.5" y="-155.8" font-family="Monospace" font-size="14.00" fill="#bbbbbb">[col(&quot;timestamp&quot;)]</text>
</g>
<!-- p1 -->
<g id="node2" class="node">
<title>p1</title>
<polygon fill="none" stroke="#bbbbbb" points="499,-318 268,-318 268,-282 499,-282 499,-318"/>
<text text-anchor="middle" x="383.5" y="-296.3" font-family="Monospace" font-size="14.00" fill="#bbbbbb">SORT BY [col(&quot;timestamp&quot;)]</text>
</g>
<!-- p2&#45;&gt;p1 -->
<g id="edge1" class="edge">
<title>p2&#45;&gt;p1</title>
<path fill="none" stroke="#bbbbbb" d="M383.5,-246.13C383.5,-254.94 383.5,-263.83 383.5,-271.76"/>
<polygon fill="#bbbbbb" stroke="#bbbbbb" points="380,-271.85 383.5,-281.85 387,-271.85 380,-271.85"/>
</g>
<!-- p3 -->
<g id="node3" class="node">
<title>p3</title>
<polygon fill="none" stroke="#bbbbbb" points="767,-112 0,-112 0,-74 767,-74 767,-112"/>
<text text-anchor="middle" x="383.5" y="-96.8" font-family="Monospace" font-size="14.00" fill="#bbbbbb">WITH COLUMNS [col(&quot;bids&quot;).list.get([dyn int: 0]).alias(&quot;__POLARS_CSER_0x4022f529c3442314&quot;),</text>
<text text-anchor="middle" x="383.5" y="-81.8" font-family="Monospace" font-size="14.00" fill="#bbbbbb"> col(&quot;asks&quot;).list.get([dyn int: 0]).alias(&quot;__POLARS_CSER_0x3468f0989d2369d7&quot;)]</text>
</g>
<!-- p3&#45;&gt;p2 -->
<g id="edge2" class="edge">
<title>p3&#45;&gt;p2</title>
<path fill="none" stroke="#bbbbbb" d="M383.5,-112.24C383.5,-119.56 383.5,-128.44 383.5,-137.65"/>
<polygon fill="#bbbbbb" stroke="#bbbbbb" points="380,-137.72 383.5,-147.72 387,-137.72 380,-137.72"/>
</g>
<!-- p4 -->
<g id="node4" class="node">
<title>p4</title>
<polygon fill="none" stroke="#bbbbbb" points="742.5,-38 24.5,-38 24.5,0 742.5,0 742.5,-38"/>
<text text-anchor="middle" x="383.5" y="-22.8" font-family="Monospace" font-size="14.00" fill="#bbbbbb">Parquet SCAN [../polars&#45;nested&#45;types&#45;pydata&#45;data/parquet/fix/flatlist_zstd_1.parquet]</text>
<text text-anchor="middle" x="383.5" y="-7.8" font-family="Monospace" font-size="14.00" fill="#bbbbbb">π 3/4;</text>
</g>
<!-- p4&#45;&gt;p3 -->
<g id="edge3" class="edge">
<title>p4&#45;&gt;p3</title>
<path fill="none" stroke="#bbbbbb" d="M383.5,-38.17C383.5,-45.87 383.5,-55.03 383.5,-63.58"/>
<polygon fill="#bbbbbb" stroke="#bbbbbb" points="380,-63.59 383.5,-73.59 387,-63.59 380,-63.59"/>
</g>
</g>
</svg>
