<?xml version="1.0" encoding="UTF-8" standalone="no"?>
<!DOCTYPE svg PUBLIC "-//W3C//DTD SVG 1.1//EN"
 "http://www.w3.org/Graphics/SVG/1.1/DTD/svg11.dtd">
<!-- Generated by graphviz version 2.43.0 (0)
 -->
<!-- Title: polars_query Pages: 1 -->
<svg width="718pt" height="222pt"
 viewBox="0.00 0.00 718.00 222.00" xmlns="http://www.w3.org/2000/svg" xmlns:xlink="http://www.w3.org/1999/xlink">
<g id="graph0" class="graph" transform="scale(1 1) rotate(0) translate(4 218)">
<title>polars_query</title>
<polygon fill="#181818" stroke="transparent" points="-4,4 -4,-218 714,-218 714,4 -4,4"/>
<!-- p2 -->
<g id="node1" class="node">
<title>p2</title>
<polygon fill="none" stroke="#bbbbbb" points="710,-142 0,-142 0,-74 710,-74 710,-142"/>
<text text-anchor="middle" x="355" y="-126.8" font-family="Monospace" font-size="14.00" fill="#bbbbbb">AGG [[([(col(&quot;bids_p&quot;).max()) + (col(&quot;asks_p&quot;).min())]) / (2.0)].alias(&quot;mid_price&quot;),</text>
<text text-anchor="middle" x="355" y="-111.8" font-family="Monospace" font-size="14.00" fill="#bbbbbb"> [(col(&quot;asks_p&quot;).min()) &#45; (col(&quot;bids_p&quot;).max())].alias(&quot;spread&quot;)]</text>
<text text-anchor="middle" x="355" y="-96.8" font-family="Monospace" font-size="14.00" fill="#bbbbbb">BY</text>
<text text-anchor="middle" x="355" y="-81.8" font-family="Monospace" font-size="14.00" fill="#bbbbbb">[col(&quot;timestamp&quot;)]</text>
</g>
<!-- p1 -->
<g id="node2" class="node">
<title>p1</title>
<polygon fill="none" stroke="#bbbbbb" points="470.5,-214 239.5,-214 239.5,-178 470.5,-178 470.5,-214"/>
<text text-anchor="middle" x="355" y="-192.3" font-family="Monospace" font-size="14.00" fill="#bbbbbb">SORT BY [col(&quot;timestamp&quot;)]</text>
</g>
<!-- p2&#45;&gt;p1 -->
<g id="edge1" class="edge">
<title>p2&#45;&gt;p1</title>
<path fill="none" stroke="#bbbbbb" d="M355,-142C355,-150.44 355,-159.41 355,-167.53"/>
<polygon fill="#bbbbbb" stroke="#bbbbbb" points="351.5,-167.6 355,-177.6 358.5,-167.6 351.5,-167.6"/>
</g>
<!-- p3 -->
<g id="node3" class="node">
<title>p3</title>
<polygon fill="none" stroke="#bbbbbb" points="705.5,-38 4.5,-38 4.5,0 705.5,0 705.5,-38"/>
<text text-anchor="middle" x="355" y="-22.8" font-family="Monospace" font-size="14.00" fill="#bbbbbb">Parquet SCAN [../polars&#45;nested&#45;types&#45;pydata&#45;data/parquet/fix/nonest_zstd_1.parquet]</text>
<text text-anchor="middle" x="355" y="-7.8" font-family="Monospace" font-size="14.00" fill="#bbbbbb">π 3/6;</text>
</g>
<!-- p3&#45;&gt;p2 -->
<g id="edge2" class="edge">
<title>p3&#45;&gt;p2</title>
<path fill="none" stroke="#bbbbbb" d="M355,-38.03C355,-45.55 355,-54.64 355,-63.72"/>
<polygon fill="#bbbbbb" stroke="#bbbbbb" points="351.5,-63.88 355,-73.88 358.5,-63.88 351.5,-63.88"/>
</g>
</g>
</svg>
