<?xml version="1.0" encoding="UTF-8" standalone="no"?>
<!DOCTYPE svg PUBLIC "-//W3C//DTD SVG 1.1//EN"
 "http://www.w3.org/Graphics/SVG/1.1/DTD/svg11.dtd">
<!-- Generated by graphviz version 2.43.0 (0)
 -->
<!-- Title: polars_query Pages: 1 -->
<svg width="718pt" height="190pt"
 viewBox="0.00 0.00 718.00 190.00" xmlns="http://www.w3.org/2000/svg" xmlns:xlink="http://www.w3.org/1999/xlink">
<g id="graph0" class="graph" transform="scale(1 1) rotate(0) translate(4 186)">
<title>polars_query</title>
<polygon fill="#181818" stroke="transparent" points="-4,4 -4,-186 714,-186 714,4 -4,4"/>
<!-- p2 -->
<g id="node1" class="node">
<title>p2</title>
<polygon fill="none" stroke="#bbbbbb" points="384,-110 326,-110 326,-74 384,-74 384,-110"/>
<text text-anchor="middle" x="355" y="-88.3" font-family="Monospace" font-size="14.00" fill="#bbbbbb">π 3/3</text>
</g>
<!-- p1 -->
<g id="node2" class="node">
<title>p1</title>
<polygon fill="none" stroke="#bbbbbb" points="470.5,-182 239.5,-182 239.5,-146 470.5,-146 470.5,-182"/>
<text text-anchor="middle" x="355" y="-160.3" font-family="Monospace" font-size="14.00" fill="#bbbbbb">SORT BY [col(&quot;timestamp&quot;)]</text>
</g>
<!-- p2&#45;&gt;p1 -->
<g id="edge1" class="edge">
<title>p2&#45;&gt;p1</title>
<path fill="none" stroke="#bbbbbb" d="M355,-110.3C355,-118.02 355,-127.29 355,-135.89"/>
<polygon fill="#bbbbbb" stroke="#bbbbbb" points="351.5,-135.9 355,-145.9 358.5,-135.9 351.5,-135.9"/>
</g>
<!-- p3 -->
<g id="node3" class="node">
<title>p3</title>
<polygon fill="none" stroke="#bbbbbb" points="710,-38 0,-38 0,0 710,0 710,-38"/>
<text text-anchor="middle" x="355" y="-22.8" font-family="Monospace" font-size="14.00" fill="#bbbbbb">Parquet SCAN [../polars&#45;nested&#45;types&#45;pydata&#45;data/parquet/fix/nestarr_zstd_1.parquet]</text>
<text text-anchor="middle" x="355" y="-7.8" font-family="Monospace" font-size="14.00" fill="#bbbbbb">π 3/4;</text>
</g>
<!-- p3&#45;&gt;p2 -->
<g id="edge2" class="edge">
<title>p3&#45;&gt;p2</title>
<path fill="none" stroke="#bbbbbb" d="M355,-38.28C355,-46.03 355,-55.21 355,-63.73"/>
<polygon fill="#bbbbbb" stroke="#bbbbbb" points="351.5,-64 355,-74 358.5,-64 351.5,-64"/>
</g>
</g>
</svg>
