<?xml version="1.0" encoding="UTF-8" standalone="no"?>
<!DOCTYPE svg PUBLIC "-//W3C//DTD SVG 1.1//EN"
 "http://www.w3.org/Graphics/SVG/1.1/DTD/svg11.dtd">
<!-- Generated by graphviz version 2.43.0 (0)
 -->
<!-- Title: polars_query Pages: 1 -->
<svg width="800pt" height="326pt"
 viewBox="0.00 0.00 800.00 326.00" xmlns="http://www.w3.org/2000/svg" xmlns:xlink="http://www.w3.org/1999/xlink">
<g id="graph0" class="graph" transform="scale(1 1) rotate(0) translate(4 322)">
<title>polars_query</title>
<polygon fill="#181818" stroke="transparent" points="-4,4 -4,-322 796,-322 796,4 -4,4"/>
<!-- p2 -->
<g id="node1" class="node">
<title>p2</title>
<polygon fill="none" stroke="#bbbbbb" points="730,-246 62,-246 62,-148 730,-148 730,-246"/>
<text text-anchor="middle" x="396" y="-230.8" font-family="Monospace" font-size="14.00" fill="#bbbbbb">AGG [[([(col(&quot;__POLARS_CSER_0x3be5317762b88c0a&quot;).max()) +</text>
<text text-anchor="middle" x="396" y="-215.8" font-family="Monospace" font-size="14.00" fill="#bbbbbb"> (col(&quot;__POLARS_CSER_0xcc98e29e02ae0689&quot;).min())]) / (2.0)].alias(&quot;mid_price&quot;),</text>
<text text-anchor="middle" x="396" y="-200.8" font-family="Monospace" font-size="14.00" fill="#bbbbbb"> [(col(&quot;__POLARS_CSER_0xcc98e29e02ae0689&quot;).min()) &#45;</text>
<text text-anchor="middle" x="396" y="-185.8" font-family="Monospace" font-size="14.00" fill="#bbbbbb"> (col(&quot;__POLARS_CSER_0x3be5317762b88c0a&quot;).max())].alias(&quot;spread&quot;)]</text>
<text text-anchor="middle" x="396" y="-170.8" font-family="Monospace" font-size="14.00" fill="#bbbbbb">BY</text>
<text text-anchor="middle" x="396" y="-155.8" font-family="Monospace" font-size="14.00" fill="#bbbbbb">[col(&quot;timestamp&quot;)]</text>
</g>
<!-- p1 -->
<g id="node2" class="node">
<title>p1</title>
<polygon fill="none" stroke="#bbbbbb" points="511.5,-318 280.5,-318 280.5,-282 511.5,-282 511.5,-318"/>
<text text-anchor="middle" x="396" y="-296.3" font-family="Monospace" font-size="14.00" fill="#bbbbbb">SORT BY [col(&quot;timestamp&quot;)]</text>
</g>
<!-- p2&#45;&gt;p1 -->
<g id="edge1" class="edge">
<title>p2&#45;&gt;p1</title>
<path fill="none" stroke="#bbbbbb" d="M396,-246.13C396,-254.94 396,-263.83 396,-271.76"/>
<polygon fill="#bbbbbb" stroke="#bbbbbb" points="392.5,-271.85 396,-281.85 399.5,-271.85 392.5,-271.85"/>
</g>
<!-- p3 -->
<g id="node3" class="node">
<title>p3</title>
<polygon fill="none" stroke="#bbbbbb" points="792,-112 0,-112 0,-74 792,-74 792,-112"/>
<text text-anchor="middle" x="396" y="-96.8" font-family="Monospace" font-size="14.00" fill="#bbbbbb">WITH COLUMNS [col(&quot;asks&quot;).struct.field_by_name(p)().alias(&quot;__POLARS_CSER_0xcc98e29e02ae0689&quot;),</text>
<text text-anchor="middle" x="396" y="-81.8" font-family="Monospace" font-size="14.00" fill="#bbbbbb"> col(&quot;bids&quot;).struct.field_by_name(p)().alias(&quot;__POLARS_CSER_0x3be5317762b88c0a&quot;)]</text>
</g>
<!-- p3&#45;&gt;p2 -->
<g id="edge2" class="edge">
<title>p3&#45;&gt;p2</title>
<path fill="none" stroke="#bbbbbb" d="M396,-112.24C396,-119.56 396,-128.44 396,-137.65"/>
<polygon fill="#bbbbbb" stroke="#bbbbbb" points="392.5,-137.72 396,-147.72 399.5,-137.72 392.5,-137.72"/>
</g>
<!-- p4 -->
<g id="node4" class="node">
<title>p4</title>
<polygon fill="none" stroke="#bbbbbb" points="746.5,-38 45.5,-38 45.5,0 746.5,0 746.5,-38"/>
<text text-anchor="middle" x="396" y="-22.8" font-family="Monospace" font-size="14.00" fill="#bbbbbb">Parquet SCAN [../polars&#45;nested&#45;types&#45;pydata&#45;data/parquet/fix/struct_zstd_1.parquet]</text>
<text text-anchor="middle" x="396" y="-7.8" font-family="Monospace" font-size="14.00" fill="#bbbbbb">π 3/4;</text>
</g>
<!-- p4&#45;&gt;p3 -->
<g id="edge3" class="edge">
<title>p4&#45;&gt;p3</title>
<path fill="none" stroke="#bbbbbb" d="M396,-38.17C396,-45.87 396,-55.03 396,-63.58"/>
<polygon fill="#bbbbbb" stroke="#bbbbbb" points="392.5,-63.59 396,-73.59 399.5,-63.59 392.5,-63.59"/>
</g>
</g>
</svg>
