<?xml version="1.0" encoding="UTF-8" standalone="no"?>
<!DOCTYPE svg PUBLIC "-//W3C//DTD SVG 1.1//EN"
 "http://www.w3.org/Graphics/SVG/1.1/DTD/svg11.dtd">
<!-- Generated by graphviz version 2.43.0 (0)
 -->
<!-- Title: polars_query Pages: 1 -->
<svg width="709pt" height="294pt"
 viewBox="0.00 0.00 709.00 294.00" xmlns="http://www.w3.org/2000/svg" xmlns:xlink="http://www.w3.org/1999/xlink">
<g id="graph0" class="graph" transform="scale(1 1) rotate(0) translate(4 290)">
<title>polars_query</title>
<polygon fill="#181818" stroke="transparent" points="-4,4 -4,-290 705,-290 705,4 -4,4"/>
<!-- p2 -->
<g id="node1" class="node">
<title>p2</title>
<polygon fill="none" stroke="#bbbbbb" points="379.5,-214 321.5,-214 321.5,-178 379.5,-178 379.5,-214"/>
<text text-anchor="middle" x="350.5" y="-192.3" font-family="Monospace" font-size="14.00" fill="#bbbbbb">π 4/4</text>
</g>
<!-- p1 -->
<g id="node2" class="node">
<title>p1</title>
<polygon fill="none" stroke="#bbbbbb" points="466,-286 235,-286 235,-250 466,-250 466,-286"/>
<text text-anchor="middle" x="350.5" y="-264.3" font-family="Monospace" font-size="14.00" fill="#bbbbbb">SORT BY [col(&quot;timestamp&quot;)]</text>
</g>
<!-- p2&#45;&gt;p1 -->
<g id="edge1" class="edge">
<title>p2&#45;&gt;p1</title>
<path fill="none" stroke="#bbbbbb" d="M350.5,-214.3C350.5,-222.02 350.5,-231.29 350.5,-239.89"/>
<polygon fill="#bbbbbb" stroke="#bbbbbb" points="347,-239.9 350.5,-249.9 354,-239.9 347,-239.9"/>
</g>
<!-- p3 -->
<g id="node3" class="node">
<title>p3</title>
<polygon fill="none" stroke="#bbbbbb" points="651.5,-142 49.5,-142 49.5,-74 651.5,-74 651.5,-142"/>
<text text-anchor="middle" x="350.5" y="-126.8" font-family="Monospace" font-size="14.00" fill="#bbbbbb">AGG [col(&quot;bids&quot;).struct.field_by_name(v)().sum().alias(&quot;total_bids_v&quot;),</text>
<text text-anchor="middle" x="350.5" y="-111.8" font-family="Monospace" font-size="14.00" fill="#bbbbbb"> col(&quot;asks&quot;).struct.field_by_name(v)().sum().alias(&quot;total_asks_v&quot;)]</text>
<text text-anchor="middle" x="350.5" y="-96.8" font-family="Monospace" font-size="14.00" fill="#bbbbbb">BY</text>
<text text-anchor="middle" x="350.5" y="-81.8" font-family="Monospace" font-size="14.00" fill="#bbbbbb">[col(&quot;timestamp&quot;)]</text>
</g>
<!-- p3&#45;&gt;p2 -->
<g id="edge2" class="edge">
<title>p3&#45;&gt;p2</title>
<path fill="none" stroke="#bbbbbb" d="M350.5,-142C350.5,-150.44 350.5,-159.41 350.5,-167.53"/>
<polygon fill="#bbbbbb" stroke="#bbbbbb" points="347,-167.6 350.5,-177.6 354,-167.6 347,-167.6"/>
</g>
<!-- p4 -->
<g id="node4" class="node">
<title>p4</title>
<polygon fill="none" stroke="#bbbbbb" points="701,-38 0,-38 0,0 701,0 701,-38"/>
<text text-anchor="middle" x="350.5" y="-22.8" font-family="Monospace" font-size="14.00" fill="#bbbbbb">Parquet SCAN [../polars&#45;nested&#45;types&#45;pydata&#45;data/parquet/fix/struct_zstd_1.parquet]</text>
<text text-anchor="middle" x="350.5" y="-7.8" font-family="Monospace" font-size="14.00" fill="#bbbbbb">π 3/4;</text>
</g>
<!-- p4&#45;&gt;p3 -->
<g id="edge3" class="edge">
<title>p4&#45;&gt;p3</title>
<path fill="none" stroke="#bbbbbb" d="M350.5,-38.03C350.5,-45.55 350.5,-54.64 350.5,-63.72"/>
<polygon fill="#bbbbbb" stroke="#bbbbbb" points="347,-63.88 350.5,-73.88 354,-63.88 347,-63.88"/>
</g>
</g>
</svg>
