<?xml version="1.0" encoding="UTF-8" standalone="no"?>
<!DOCTYPE svg PUBLIC "-//W3C//DTD SVG 1.1//EN"
 "http://www.w3.org/Graphics/SVG/1.1/DTD/svg11.dtd">
<!-- Generated by graphviz version 2.43.0 (0)
 -->
<!-- Title: polars_query Pages: 1 -->
<svg width="767pt" height="279pt"
 viewBox="0.00 0.00 767.00 279.00" xmlns="http://www.w3.org/2000/svg" xmlns:xlink="http://www.w3.org/1999/xlink">
<g id="graph0" class="graph" transform="scale(1 1) rotate(0) translate(4 275)">
<title>polars_query</title>
<polygon fill="#181818" stroke="transparent" points="-4,4 -4,-275 763,-275 763,4 -4,4"/>
<!-- p2 -->
<g id="node1" class="node">
<title>p2</title>
<polygon fill="none" stroke="#bbbbbb" points="408.5,-199 350.5,-199 350.5,-163 408.5,-163 408.5,-199"/>
<text text-anchor="middle" x="379.5" y="-177.3" font-family="Monospace" font-size="14.00" fill="#bbbbbb">π 4/4</text>
</g>
<!-- p1 -->
<g id="node2" class="node">
<title>p1</title>
<polygon fill="none" stroke="#bbbbbb" points="495,-271 264,-271 264,-235 495,-235 495,-271"/>
<text text-anchor="middle" x="379.5" y="-249.3" font-family="Monospace" font-size="14.00" fill="#bbbbbb">SORT BY [col(&quot;timestamp&quot;)]</text>
</g>
<!-- p2&#45;&gt;p1 -->
<g id="edge1" class="edge">
<title>p2&#45;&gt;p1</title>
<path fill="none" stroke="#bbbbbb" d="M379.5,-199.3C379.5,-207.02 379.5,-216.29 379.5,-224.89"/>
<polygon fill="#bbbbbb" stroke="#bbbbbb" points="376,-224.9 379.5,-234.9 383,-224.9 376,-224.9"/>
</g>
<!-- p3 -->
<g id="node3" class="node">
<title>p3</title>
<polygon fill="none" stroke="#bbbbbb" points="759,-127 0,-127 0,-74 759,-74 759,-127"/>
<text text-anchor="middle" x="379.5" y="-111.8" font-family="Monospace" font-size="14.00" fill="#bbbbbb">AGG [col(&quot;bids_v&quot;).sum().alias(&quot;total_bids_v&quot;), col(&quot;asks_v&quot;).sum().alias(&quot;total_asks_v&quot;)]</text>
<text text-anchor="middle" x="379.5" y="-96.8" font-family="Monospace" font-size="14.00" fill="#bbbbbb">BY</text>
<text text-anchor="middle" x="379.5" y="-81.8" font-family="Monospace" font-size="14.00" fill="#bbbbbb">[col(&quot;timestamp&quot;)]</text>
</g>
<!-- p3&#45;&gt;p2 -->
<g id="edge2" class="edge">
<title>p3&#45;&gt;p2</title>
<path fill="none" stroke="#bbbbbb" d="M379.5,-127.2C379.5,-135.29 379.5,-144.24 379.5,-152.45"/>
<polygon fill="#bbbbbb" stroke="#bbbbbb" points="376,-152.67 379.5,-162.67 383,-152.67 376,-152.67"/>
</g>
<!-- p4 -->
<g id="node4" class="node">
<title>p4</title>
<polygon fill="none" stroke="#bbbbbb" points="730,-38 29,-38 29,0 730,0 730,-38"/>
<text text-anchor="middle" x="379.5" y="-22.8" font-family="Monospace" font-size="14.00" fill="#bbbbbb">Parquet SCAN [../polars&#45;nested&#45;types&#45;pydata&#45;data/parquet/fix/nonest_zstd_1.parquet]</text>
<text text-anchor="middle" x="379.5" y="-7.8" font-family="Monospace" font-size="14.00" fill="#bbbbbb">π 3/6;</text>
</g>
<!-- p4&#45;&gt;p3 -->
<g id="edge3" class="edge">
<title>p4&#45;&gt;p3</title>
<path fill="none" stroke="#bbbbbb" d="M379.5,-38.04C379.5,-45.68 379.5,-54.86 379.5,-63.77"/>
<polygon fill="#bbbbbb" stroke="#bbbbbb" points="376,-64 379.5,-74 383,-64 376,-64"/>
</g>
</g>
</svg>
