<?xml version="1.0" encoding="UTF-8" standalone="no"?>
<!DOCTYPE svg PUBLIC "-//W3C//DTD SVG 1.1//EN"
 "http://www.w3.org/Graphics/SVG/1.1/DTD/svg11.dtd">
<!-- Generated by graphviz version 2.43.0 (0)
 -->
<!-- Title: polars_query Pages: 1 -->
<svg width="718pt" height="264pt"
 viewBox="0.00 0.00 718.00 264.00" xmlns="http://www.w3.org/2000/svg" xmlns:xlink="http://www.w3.org/1999/xlink">
<g id="graph0" class="graph" transform="scale(1 1) rotate(0) translate(4 260)">
<title>polars_query</title>
<polygon fill="#181818" stroke="transparent" points="-4,4 -4,-260 714,-260 714,4 -4,4"/>
<!-- p2 -->
<g id="node1" class="node">
<title>p2</title>
<polygon fill="none" stroke="#bbbbbb" points="656,-184 54,-184 54,-146 656,-146 656,-184"/>
<text text-anchor="middle" x="355" y="-168.8" font-family="Monospace" font-size="14.00" fill="#bbbbbb">WITH COLUMNS [[([(col(&quot;total_bids_v&quot;)) &#45; (col(&quot;total_asks_v&quot;))]) /</text>
<text text-anchor="middle" x="355" y="-153.8" font-family="Monospace" font-size="14.00" fill="#bbbbbb"> ([(col(&quot;total_bids_v&quot;)) + (col(&quot;total_asks_v&quot;))])].alias(&quot;imbalance&quot;)]</text>
</g>
<!-- p1 -->
<g id="node2" class="node">
<title>p1</title>
<polygon fill="none" stroke="#bbbbbb" points="470.5,-256 239.5,-256 239.5,-220 470.5,-220 470.5,-256"/>
<text text-anchor="middle" x="355" y="-234.3" font-family="Monospace" font-size="14.00" fill="#bbbbbb">SORT BY [col(&quot;timestamp&quot;)]</text>
</g>
<!-- p2&#45;&gt;p1 -->
<g id="edge1" class="edge">
<title>p2&#45;&gt;p1</title>
<path fill="none" stroke="#bbbbbb" d="M355,-184.28C355,-192.03 355,-201.21 355,-209.73"/>
<polygon fill="#bbbbbb" stroke="#bbbbbb" points="351.5,-210 355,-220 358.5,-210 351.5,-210"/>
</g>
<!-- p3 -->
<g id="node3" class="node">
<title>p3</title>
<polygon fill="none" stroke="#bbbbbb" points="384,-110 326,-110 326,-74 384,-74 384,-110"/>
<text text-anchor="middle" x="355" y="-88.3" font-family="Monospace" font-size="14.00" fill="#bbbbbb">π 3/3</text>
</g>
<!-- p3&#45;&gt;p2 -->
<g id="edge2" class="edge">
<title>p3&#45;&gt;p2</title>
<path fill="none" stroke="#bbbbbb" d="M355,-110.19C355,-117.89 355,-127.18 355,-135.85"/>
<polygon fill="#bbbbbb" stroke="#bbbbbb" points="351.5,-135.98 355,-145.98 358.5,-135.98 351.5,-135.98"/>
</g>
<!-- p4 -->
<g id="node4" class="node">
<title>p4</title>
<polygon fill="none" stroke="#bbbbbb" points="710,-38 0,-38 0,0 710,0 710,-38"/>
<text text-anchor="middle" x="355" y="-22.8" font-family="Monospace" font-size="14.00" fill="#bbbbbb">Parquet SCAN [../polars&#45;nested&#45;types&#45;pydata&#45;data/parquet/fix/nestarr_zstd_1.parquet]</text>
<text text-anchor="middle" x="355" y="-7.8" font-family="Monospace" font-size="14.00" fill="#bbbbbb">π 3/4;</text>
</g>
<!-- p4&#45;&gt;p3 -->
<g id="edge3" class="edge">
<title>p4&#45;&gt;p3</title>
<path fill="none" stroke="#bbbbbb" d="M355,-38.28C355,-46.03 355,-55.21 355,-63.73"/>
<polygon fill="#bbbbbb" stroke="#bbbbbb" points="351.5,-64 355,-74 358.5,-64 351.5,-64"/>
</g>
</g>
</svg>
