<?xml version="1.0" encoding="UTF-8" standalone="no"?>
<!DOCTYPE svg PUBLIC "-//W3C//DTD SVG 1.1//EN"
 "http://www.w3.org/Graphics/SVG/1.1/DTD/svg11.dtd">
<!-- Generated by graphviz version 2.43.0 (0)
 -->
<!-- Title: polars_query Pages: 1 -->
<svg width="726pt" height="294pt"
 viewBox="0.00 0.00 726.00 294.00" xmlns="http://www.w3.org/2000/svg" xmlns:xlink="http://www.w3.org/1999/xlink">
<g id="graph0" class="graph" transform="scale(1 1) rotate(0) translate(4 290)">
<title>polars_query</title>
<polygon fill="#181818" stroke="transparent" points="-4,4 -4,-290 722,-290 722,4 -4,4"/>
<!-- p2 -->
<g id="node1" class="node">
<title>p2</title>
<polygon fill="none" stroke="#bbbbbb" points="388,-214 330,-214 330,-178 388,-178 388,-214"/>
<text text-anchor="middle" x="359" y="-192.3" font-family="Monospace" font-size="14.00" fill="#bbbbbb">π 4/4</text>
</g>
<!-- p1 -->
<g id="node2" class="node">
<title>p1</title>
<polygon fill="none" stroke="#bbbbbb" points="474.5,-286 243.5,-286 243.5,-250 474.5,-250 474.5,-286"/>
<text text-anchor="middle" x="359" y="-264.3" font-family="Monospace" font-size="14.00" fill="#bbbbbb">SORT BY [col(&quot;timestamp&quot;)]</text>
</g>
<!-- p2&#45;&gt;p1 -->
<g id="edge1" class="edge">
<title>p2&#45;&gt;p1</title>
<path fill="none" stroke="#bbbbbb" d="M359,-214.3C359,-222.02 359,-231.29 359,-239.89"/>
<polygon fill="#bbbbbb" stroke="#bbbbbb" points="355.5,-239.9 359,-249.9 362.5,-239.9 355.5,-239.9"/>
</g>
<!-- p3 -->
<g id="node3" class="node">
<title>p3</title>
<polygon fill="none" stroke="#bbbbbb" points="648,-142 70,-142 70,-74 648,-74 648,-142"/>
<text text-anchor="middle" x="359" y="-126.8" font-family="Monospace" font-size="14.00" fill="#bbbbbb">AGG [col(&quot;bids&quot;).list.get([dyn int: 1]).sum().alias(&quot;total_bids_v&quot;),</text>
<text text-anchor="middle" x="359" y="-111.8" font-family="Monospace" font-size="14.00" fill="#bbbbbb"> col(&quot;asks&quot;).list.get([dyn int: 1]).sum().alias(&quot;total_asks_v&quot;)]</text>
<text text-anchor="middle" x="359" y="-96.8" font-family="Monospace" font-size="14.00" fill="#bbbbbb">BY</text>
<text text-anchor="middle" x="359" y="-81.8" font-family="Monospace" font-size="14.00" fill="#bbbbbb">[col(&quot;timestamp&quot;)]</text>
</g>
<!-- p3&#45;&gt;p2 -->
<g id="edge2" class="edge">
<title>p3&#45;&gt;p2</title>
<path fill="none" stroke="#bbbbbb" d="M359,-142C359,-150.44 359,-159.41 359,-167.53"/>
<polygon fill="#bbbbbb" stroke="#bbbbbb" points="355.5,-167.6 359,-177.6 362.5,-167.6 355.5,-167.6"/>
</g>
<!-- p4 -->
<g id="node4" class="node">
<title>p4</title>
<polygon fill="none" stroke="#bbbbbb" points="718,-38 0,-38 0,0 718,0 718,-38"/>
<text text-anchor="middle" x="359" y="-22.8" font-family="Monospace" font-size="14.00" fill="#bbbbbb">Parquet SCAN [../polars&#45;nested&#45;types&#45;pydata&#45;data/parquet/fix/flatlist_zstd_1.parquet]</text>
<text text-anchor="middle" x="359" y="-7.8" font-family="Monospace" font-size="14.00" fill="#bbbbbb">π 3/4;</text>
</g>
<!-- p4&#45;&gt;p3 -->
<g id="edge3" class="edge">
<title>p4&#45;&gt;p3</title>
<path fill="none" stroke="#bbbbbb" d="M359,-38.03C359,-45.55 359,-54.64 359,-63.72"/>
<polygon fill="#bbbbbb" stroke="#bbbbbb" points="355.5,-63.88 359,-73.88 362.5,-63.88 355.5,-63.88"/>
</g>
</g>
</svg>
